<?xml version="1.0" encoding="utf-8"?>
<!-- Generator: Adobe Illustrator 16.0.0, SVG Export Plug-In . SVG Version: 6.00 Build 0)  -->
<!DOCTYPE svg PUBLIC "-//W3C//DTD SVG 1.1//EN" "http://www.w3.org/Graphics/SVG/1.1/DTD/svg11.dtd">
<svg version="1.1" id="Vrstva_1" xmlns="http://www.w3.org/2000/svg" xmlns:xlink="http://www.w3.org/1999/xlink" x="0px" y="0px"
	 width="362px" height="319.999px" viewBox="31.333 179.167 362 319.999" enable-background="new 31.333 179.167 362 319.999"
	 xml:space="preserve">
<linearGradient id="SVGID_1_" gradientUnits="userSpaceOnUse" x1="35.563" y1="186.9995" x2="398.6324" y2="550.069">
	<stop  offset="0" style="stop-color:#FFD922"/>
	<stop  offset="0.4866" style="stop-color:#EAAE0C"/>
	<stop  offset="1" style="stop-color:#C9970B"/>
</linearGradient>
<path fill="url(#SVGID_1_)" d="M212.5,180c4.383,0,8.566,1.793,11.555,4.98l95.625,100.938l0.332,0.332h51.863
	c11.754,0,21.25,9.496,21.25,21.25c0,9.629-6.375,17.73-15.141,20.387L347.371,465.48c-4.316,19.457-21.582,33.27-41.504,33.27
	H119.066c-19.922,0-37.188-13.813-41.504-33.27L47.016,327.887c-8.766-2.59-15.141-10.758-15.141-20.387
	c0-11.754,9.496-21.25,21.25-21.25h51.863l0.332-0.332l95.625-100.938C203.934,181.793,208.117,180,212.5,180z M212.5,219.113
	l-63.617,67.137h127.234L212.5,219.113z M159.375,355.313c0-8.832-7.105-15.938-15.938-15.938S127.5,346.48,127.5,355.313v74.375
	c0,8.832,7.105,15.938,15.938,15.938s15.938-7.105,15.938-15.938V355.313z M212.5,339.375c-8.832,0-15.938,7.105-15.938,15.938
	v74.375c0,8.832,7.105,15.938,15.938,15.938s15.938-7.105,15.938-15.938v-74.375C228.438,346.48,221.332,339.375,212.5,339.375z
	 M297.5,355.313c0-8.832-7.105-15.938-15.938-15.938s-15.938,7.105-15.938,15.938v74.375c0,8.832,7.105,15.938,15.938,15.938
	s15.938-7.105,15.938-15.938V355.313z"/>
</svg>
