<?xml version="1.0" encoding="iso-8859-1"?>
<!-- Generator: Adobe Illustrator 16.0.0, SVG Export Plug-In . SVG Version: 6.00 Build 0)  -->
<!DOCTYPE svg PUBLIC "-//W3C//DTD SVG 1.1//EN" "http://www.w3.org/Graphics/SVG/1.1/DTD/svg11.dtd">
<svg version="1.1" id="Vrstva_1" xmlns="http://www.w3.org/2000/svg" xmlns:xlink="http://www.w3.org/1999/xlink" x="0px" y="0px"
	 width="36px" height="34.906px" viewBox="0 0 36 34.906" enable-background="new 0 0 36 34.906" xml:space="preserve">
<g>
	<g>
		<g>
			<linearGradient id="SVGID_1_" gradientUnits="userSpaceOnUse" x1="17.9692" y1="34.3745" x2="17.9692" y2="4.5655">
				<stop  offset="0" style="stop-color:#FFD923"/>
				<stop  offset="0.4866" style="stop-color:#E9AE10"/>
				<stop  offset="0.877" style="stop-color:#C99711"/>
			</linearGradient>
			<rect x="0.496" y="31.952" fill="url(#SVGID_1_)" width="34.947" height="2.752"/>
		</g>
	</g>
	<g>
		<linearGradient id="SVGID_2_" gradientUnits="userSpaceOnUse" x1="18.647" y1="34.3755" x2="18.647" y2="4.5611">
			<stop  offset="0" style="stop-color:#FFD923"/>
			<stop  offset="0.4866" style="stop-color:#E9AE10"/>
			<stop  offset="0.877" style="stop-color:#C99711"/>
		</linearGradient>
		<path fill="url(#SVGID_2_)" d="M31.071,3.716c-0.838-0.75-1.582-1.417-2.496-2.235c2.326-0.453,4.451-0.866,6.736-1.311
			c-0.16,2.264-0.314,4.429-0.482,6.811c-0.887-0.764-1.617-1.392-2.398-2.065c-8.373,8.367-18.425,12.892-30.302,13.681
			c-0.05-0.601-0.092-1.118-0.146-1.771C13.304,16.062,22.991,11.801,31.071,3.716z"/>
		<linearGradient id="SVGID_3_" gradientUnits="userSpaceOnUse" x1="22.6387" y1="34.3755" x2="22.6387" y2="4.5611">
			<stop  offset="0" style="stop-color:#FFD923"/>
			<stop  offset="0.4866" style="stop-color:#E9AE10"/>
			<stop  offset="0.877" style="stop-color:#C99711"/>
		</linearGradient>
		<path fill="url(#SVGID_3_)" d="M20.085,16.127c1.709,0,3.379,0,5.107,0c0,4.771,0,9.486,0,14.281c-1.689,0-3.359,0-5.107,0
			C20.085,25.663,20.085,20.923,20.085,16.127z"/>
		<linearGradient id="SVGID_4_" gradientUnits="userSpaceOnUse" x1="13.5786" y1="34.3735" x2="13.5786" y2="4.5618">
			<stop  offset="0" style="stop-color:#FFD923"/>
			<stop  offset="0.4866" style="stop-color:#E9AE10"/>
			<stop  offset="0.877" style="stop-color:#C99711"/>
		</linearGradient>
		<path fill="url(#SVGID_4_)" d="M11.093,19.208c1.666,0,3.271,0,4.971,0c0,3.726,0,7.415,0,11.193c-1.621,0-3.254,0-4.971,0
			C11.093,26.719,11.093,23.026,11.093,19.208z"/>
		<linearGradient id="SVGID_5_" gradientUnits="userSpaceOnUse" x1="5.2896" y1="34.3745" x2="5.2895" y2="4.5618">
			<stop  offset="0" style="stop-color:#FFD923"/>
			<stop  offset="0.4866" style="stop-color:#E9AE10"/>
			<stop  offset="0.877" style="stop-color:#C99711"/>
		</linearGradient>
		<path fill="url(#SVGID_5_)" d="M7.792,30.439c-1.703,0-3.314,0-5.006,0c0-2.999,0-5.98,0-9.032c1.639,0,3.277,0,5.006,0
			C7.792,24.368,7.792,27.348,7.792,30.439z"/>
	</g>
	<linearGradient id="SVGID_6_" gradientUnits="userSpaceOnUse" x1="31.752" y1="34.3755" x2="31.752" y2="4.5611">
		<stop  offset="0" style="stop-color:#FFD923"/>
		<stop  offset="0.4866" style="stop-color:#E9AE10"/>
		<stop  offset="0.877" style="stop-color:#C99711"/>
	</linearGradient>
	<path fill="url(#SVGID_6_)" d="M29.218,10.935c1.705,0,3.348,0,5.068,0c0,6.486,0,12.928,0,19.466c-1.662,0-3.328,0-5.068,0
		C29.218,23.959,29.218,17.519,29.218,10.935z"/>
</g>
</svg>
