<?xml version="1.0" encoding="utf-8"?>
<!-- Generator: Adobe Illustrator 16.0.0, SVG Export Plug-In . SVG Version: 6.00 Build 0)  -->
<!DOCTYPE svg PUBLIC "-//W3C//DTD SVG 1.1//EN" "http://www.w3.org/Graphics/SVG/1.1/DTD/svg11.dtd">
<svg version="1.1" id="Vrstva_1" xmlns="http://www.w3.org/2000/svg" xmlns:xlink="http://www.w3.org/1999/xlink" x="0px" y="0px"
	 width="384px" height="332px" viewBox="20 167.5 384 332" enable-background="new 20 167.5 384 332" xml:space="preserve">
<linearGradient id="SVGID_1_" gradientUnits="userSpaceOnUse" x1="0.2163" y1="153.8706" x2="425.9817" y2="579.636">
	<stop  offset="0" style="stop-color:#FFD922"/>
	<stop  offset="0.4866" style="stop-color:#EAAE0C"/>
	<stop  offset="1" style="stop-color:#C9970B"/>
</linearGradient>
<path fill="url(#SVGID_1_)" d="M221.996,171.633c-5.977-2.988-13.016-2.988-18.992,0l-170,85
	c-10.492,5.246-14.742,17.996-9.496,28.488s17.996,14.742,28.488,9.496L212.5,214.398l160.504,80.219
	c10.492,5.246,23.242,0.996,28.488-9.496s0.996-23.242-9.496-28.488L221.996,171.633z M212.5,360.625
	c20.52,0,37.188-16.668,37.188-37.188S233.02,286.25,212.5,286.25s-37.188,16.668-37.188,37.188S191.98,360.625,212.5,360.625z
	 M212.5,392.5c-35.195,0-63.75,28.555-63.75,63.75v21.25c0,11.754,9.496,21.25,21.25,21.25h85c11.754,0,21.25-9.496,21.25-21.25
	v-21.25C276.25,421.055,247.695,392.5,212.5,392.5z M127.5,350c0-17.598-14.277-31.875-31.875-31.875S63.75,332.402,63.75,350
	s14.277,31.875,31.875,31.875S127.5,367.598,127.5,350z M361.25,350c0-17.598-14.277-31.875-31.875-31.875S297.5,332.402,297.5,350
	s14.277,31.875,31.875,31.875S361.25,367.598,361.25,350z M95.625,403.125c-29.352,0-53.125,23.773-53.125,53.125v21.98
	c0,11.289,9.164,20.52,20.52,20.52h58.305c-2.855-6.508-4.449-13.68-4.449-21.25v-31.875c0-12.219,2.324-23.906,6.508-34.664
	C115.281,405.98,105.785,403.125,95.625,403.125z M303.742,498.75h58.305c11.289,0,20.52-9.164,20.52-20.52v-21.98
	c0-29.352-23.773-53.125-53.125-53.125c-10.16,0-19.656,2.855-27.758,7.836c4.184,10.758,6.508,22.445,6.508,34.664V477.5
	C308.191,485.07,306.598,492.242,303.742,498.75z"/>
</svg>
