<?xml version="1.0" encoding="utf-8"?>
<!-- Generator: Adobe Illustrator 16.0.0, SVG Export Plug-In . SVG Version: 6.00 Build 0)  -->
<!DOCTYPE svg PUBLIC "-//W3C//DTD SVG 1.1//EN" "http://www.w3.org/Graphics/SVG/1.1/DTD/svg11.dtd">
<svg version="1.1" id="Vrstva_1" xmlns="http://www.w3.org/2000/svg" xmlns:xlink="http://www.w3.org/1999/xlink" x="0px" y="0px"
	 width="425px" height="339.75px" viewBox="0 159 425 339.75" enable-background="new 0 159 425 339.75" xml:space="preserve">
<linearGradient id="SVGID_1_" gradientUnits="userSpaceOnUse" x1="43.4238" y1="191.6504" x2="463.1953" y2="611.4219">
	<stop  offset="0" style="stop-color:#FFD922"/>
	<stop  offset="0.4866" style="stop-color:#EAAE0C"/>
	<stop  offset="1" style="stop-color:#C9970B"/>
</linearGradient>
<path fill="url(#SVGID_1_)" d="M233.75,180.234c0-11.745-9.496-21.234-21.25-21.234s-21.25,9.489-21.25,21.234v42.469H127.5
	c-35.195,0-63.75,28.534-63.75,63.703v148.641c0,35.17,28.555,63.703,63.75,63.703h170c35.195,0,63.75-28.533,63.75-63.703V286.406
	c0-35.169-28.555-63.703-63.75-63.703h-63.75V180.234z M106.25,424.43c0-8.825,7.105-15.926,15.938-15.926h21.25
	c8.832,0,15.938,7.101,15.938,15.926s-7.105,15.926-15.938,15.926h-21.25C113.355,440.355,106.25,433.255,106.25,424.43z
	 M185.938,424.43c0-8.825,7.105-15.926,15.938-15.926h21.25c8.832,0,15.938,7.101,15.938,15.926s-7.105,15.926-15.938,15.926h-21.25
	C193.043,440.355,185.938,433.255,185.938,424.43z M265.625,424.43c0-8.825,7.105-15.926,15.938-15.926h21.25
	c8.832,0,15.938,7.101,15.938,15.926s-7.105,15.926-15.938,15.926h-21.25C272.73,440.355,265.625,433.255,265.625,424.43z
	 M148.75,297.023c17.598,0,31.875,14.267,31.875,31.852s-14.277,31.852-31.875,31.852s-31.875-14.267-31.875-31.852
	S131.152,297.023,148.75,297.023z M244.375,328.875c0-17.585,14.277-31.852,31.875-31.852s31.875,14.267,31.875,31.852
	s-14.277,31.852-31.875,31.852S244.375,346.46,244.375,328.875z M42.5,328.875c0-11.745-9.496-21.234-21.25-21.234
	S0,317.13,0,328.875v63.703c0,11.745,9.496,21.234,21.25,21.234s21.25-9.489,21.25-21.234V328.875z M403.75,307.641
	c-11.754,0-21.25,9.489-21.25,21.234v63.703c0,11.745,9.496,21.234,21.25,21.234S425,404.323,425,392.578v-63.703
	C425,317.13,415.504,307.641,403.75,307.641z"/>
</svg>
